<svg xmlns="http://www.w3.org/2000/svg" width="42" height="42" fill="none" viewBox="0 0 42 42">
  <rect width="42" height="42" fill="#010101" rx="14"/>
  <path fill="#fff" fill-opacity=".1" fill-rule="evenodd" d="M25.5 15h3a1.5 1.5 0 0 1 1.5 1.5V27a1.5 1.5 0 0 1-1.5 1.5h-15A1.5 1.5 0 0 1 12 27V16.5a1.5 1.5 0 0 1 1.5-1.5h3l1.5-2.25h6L25.5 15Zm-6.375 9.181a3.374 3.374 0 1 0 3.75-5.61 3.374 3.374 0 0 0-3.75 5.61Z" clip-rule="evenodd"/>
  <path fill="#0FF" fill-rule="evenodd" d="M30.091 28.591s-.659.659-1.591.659h-15s-.932 0-1.591-.659c0 0-.659-.659-.659-1.591V16.5s0-.932.659-1.591c0 0 .659-.659 1.591-.659h2.599l1.277-1.916A.75.75 0 0 1 18 12h6a.75.75 0 0 1 .624.334l1.277 1.916H28.5s.932 0 1.591.659c0 0 .659.659.659 1.591V27s0 .932-.659 1.591Zm-1.06-1.06s.219-.22.219-.531V16.5s0-.31-.22-.53c0 0-.22-.22-.53-.22h-3a.75.75 0 0 1-.624-.334L23.599 13.5H18.4l-1.277 1.916a.75.75 0 0 1-.624.334h-3s-.31 0-.53.22c0 0-.22.22-.22.53V27s0 .31.22.53c0 0 .22.22.53.22h15s.31 0 .53-.22Z" clip-rule="evenodd"/>
  <path fill="#0FF" fill-rule="evenodd" d="M21 17.25s1.709 0 2.917 1.208c0 0 1.208 1.208 1.208 2.917 0 0 0 1.709-1.208 2.917 0 0-1.208 1.208-2.917 1.208 0 0-1.709 0-2.917-1.208 0 0-1.208-1.208-1.208-2.917 0 0 0-1.709 1.208-2.917 0 0 1.208-1.208 2.917-1.208Zm0 1.5s-1.087 0-1.856.769c0 0-.769.769-.769 1.856 0 0 0 1.087.769 1.856 0 0 .769.769 1.856.769 0 0 1.087 0 1.856-.769 0 0 .769-.769.769-1.856 0 0 0-1.087-.769-1.856 0 0-.769-.769-1.856-.769Z" clip-rule="evenodd"/>
</svg>
